<svg width="500" height="500" viewBox="0 0 500 500" fill="none" xmlns="http://www.w3.org/2000/svg">
  <circle cx="250" cy="250" r="230" fill="#6f7a4f"/>
  
  <g stroke="#c0c6ab" stroke-width="12" stroke-linecap="round" stroke-linejoin="round">
    <path d="M250 110C270 110 290 130 290 160C290 190 270 210 250 210C230 210 210 190 210 160C210 130 230 110 250 110Z" transform="rotate(0 250 250) translate(0 -40)"/>
    <path d="M250 110C270 110 290 130 290 160C290 190 270 210 250 210C230 210 210 190 210 160C210 130 230 110 250 110Z" transform="rotate(45 250 250) translate(0 -40)"/>
    <path d="M250 110C270 110 290 130 290 160C290 190 270 210 250 210C230 210 210 190 210 160C210 130 230 110 250 110Z" transform="rotate(90 250 250) translate(0 -40)"/>
    <path d="M250 110C270 110 290 130 290 160C290 190 270 210 250 210C230 210 210 190 210 160C210 130 230 110 250 110Z" transform="rotate(135 250 250) translate(0 -40)"/>
    <path d="M250 110C270 110 290 130 290 160C290 190 270 210 250 210C230 210 210 190 210 160C210 130 230 110 250 110Z" transform="rotate(180 250 250) translate(0 -40)"/>
    <path d="M250 110C270 110 290 130 290 160C290 190 270 210 250 210C230 210 210 190 210 160C210 130 230 110 250 110Z" transform="rotate(225 250 250) translate(0 -40)"/>
    <path d="M250 110C270 110 290 130 290 160C290 190 270 210 250 210C230 210 210 190 210 160C210 130 230 110 250 110Z" transform="rotate(270 250 250) translate(0 -40)"/>
    <path d="M250 110C270 110 290 130 290 160C290 190 270 210 250 210C230 210 210 190 210 160C210 130 230 110 250 110Z" transform="rotate(315 250 250) translate(0 -40)"/>
  </g>
</svg>